<svg width="512" height="512" viewBox="0 0 512 512" xmlns="http://www.w3.org/2000/svg">
  <defs>
    <linearGradient id="gradient" x1="0%" y1="0%" x2="100%" y2="100%">
      <stop offset="0%" style="stop-color:#6366f1;stop-opacity:1" />
      <stop offset="100%" style="stop-color:#8b5cf6;stop-opacity:1" />
    </linearGradient>
    <filter id="shadow" x="-20%" y="-20%" width="140%" height="140%">
      <feDropShadow dx="2" dy="4" stdDeviation="3" flood-opacity="0.3"/>
    </filter>
  </defs>
  
  <!-- Background circle -->
  <circle cx="256" cy="256" r="252" fill="url(#gradient)" filter="url(#shadow)"/>
  
  <!-- Brain/AI symbol -->
  <g transform="translate(102.4, 102.4) scale(3.072)">
    <!-- Neural network nodes -->
    <circle cx="20" cy="20" r="6" fill="white" opacity="0.9"/>
    <circle cx="60" cy="15" r="6" fill="white" opacity="0.9"/>
    <circle cx="80" cy="45" r="6" fill="white" opacity="0.9"/>
    <circle cx="45" cy="55" r="6" fill="white" opacity="0.9"/>
    <circle cx="15" cy="75" r="6" fill="white" opacity="0.9"/>
    <circle cx="70" cy="80" r="6" fill="white" opacity="0.9"/>
    
    <!-- Connections -->
    <line x1="20" y1="20" x2="60" y2="15" stroke="white" stroke-width="2" opacity="0.7"/>
    <line x1="60" y1="15" x2="80" y2="45" stroke="white" stroke-width="2" opacity="0.7"/>
    <line x1="20" y1="20" x2="45" y2="55" stroke="white" stroke-width="2" opacity="0.7"/>
    <line x1="45" y1="55" x2="80" y2="45" stroke="white" stroke-width="2" opacity="0.7"/>
    <line x1="45" y1="55" x2="15" y2="75" stroke="white" stroke-width="2" opacity="0.7"/>
    <line x1="45" y1="55" x2="70" y2="80" stroke="white" stroke-width="2" opacity="0.7"/>
    <line x1="80" y1="45" x2="70" y2="80" stroke="white" stroke-width="2" opacity="0.7"/>
  </g>
  
  <!-- Brand strategy element (target/bullseye) -->
  <g transform="translate(307.2, 307.2) scale(1.536)">
    <circle cx="20" cy="20" r="18" fill="none" stroke="white" stroke-width="3" opacity="0.8"/>
    <circle cx="20" cy="20" r="12" fill="none" stroke="white" stroke-width="2" opacity="0.8"/>
    <circle cx="20" cy="20" r="6" fill="white" opacity="0.9"/>
    <circle cx="20" cy="20" r="2" fill="url(#gradient)"/>
  </g>
</svg>